<svg id="svg" version="1.1" xmlns="http://www.w3.org/2000/svg" xmlns:xlink="http://www.w3.org/1999/xlink" width="400" height="400" viewBox="0, 0, 400,400"><g id="svgg"><path id="path0" d="M220.400 310.000 L 220.400 400.000 310.200 400.000 L 400.000 400.000 400.000 310.000 L 400.000 220.000 310.200 220.000 L 220.400 220.000 220.400 310.000 " stroke="none" fill="#b4b4b4" fill-rule="evenodd"></path><path id="path1" d="M220.197 310.000 C 220.197 359.610,220.243 379.905,220.300 355.100 C 220.357 330.295,220.357 289.705,220.300 264.900 C 220.243 240.095,220.197 260.390,220.197 310.000 " stroke="none" fill="#a4acac" fill-rule="evenodd"></path><path id="path2" d="M0.000 200.000 L 0.000 400.000 110.000 400.000 L 220.000 400.000 220.000 310.000 L 220.000 220.000 310.000 220.000 L 400.000 220.000 400.000 110.000 L 400.000 0.000 200.000 0.000 L 0.000 0.000 0.000 200.000 " stroke="none" fill="#349c54" fill-rule="evenodd"></path><path id="path3" d="" stroke="none" fill="#54a888" fill-rule="evenodd"></path><path id="path4" d="" stroke="none" fill="#58a854" fill-rule="evenodd"></path></g></svg>